<svg xmlns="http://www.w3.org/2000/svg" viewBox="0 0 290.41 336.69"><defs><style>.cls-1{fill:#4799cc;}.cls-1,.cls-2,.cls-3,.cls-4,.cls-6{stroke:#231f20;stroke-miterlimit:10;}.cls-2{fill:#19526d;}.cls-3{fill:#231f20;}.cls-4,.cls-5{fill:#fff;}.cls-6{fill:none;}</style></defs><title>Logo</title><g id="Layer_2" data-name="Layer 2"><g id="Layer_1-2" data-name="Layer 1"><path class="cls-1" d="M2.38,189h3l1.22-4.94L7.78,189h.53l1.45-4.94L10.91,189h2.5l.65-4.12L15.37,189h3.35l.77-4.12V189h.25l1-4.12.89,4.12h.87V184.9h1.63v-4h6.15v4H42.19v-6.45h5.4v7.18l1.73-9.42,2.94,14.28h5.45v-6.45h1.12V180.9H62v-13h1.12L65.8,149.3l2.85,18.58h1v13h3v3.16H73.7v6.45h2.08V193h3.34V181.82h3.81v4.76h3.81V175.15l1.59-8.74,1.59,8.74v.31l1.27-4.68,1,3.81.8-3.81.77,6.27h1v-3.16h.16l1-4.93,1.4,4.93h.21v3.16h2.09v-1.9h.21l1-4.37,1.17,4.37v1.9h1.73v-1.9h.12l.75-6.19.75,6.19h.11v11.43h4.42v3.91h.77l.66-4.77.65,4.77h3L116,184l.53,6.45h.19l.54-5.64v5.64h1.45l1.4-6.59,1.12,6.75,1.59-.7v-1h.12l.84-7.15.8,7.15h.16v4H128v-5.52h7.48v-8h2.17c0-.37,0-.7,0-1.07a13.74,13.74,0,0,1,6.83-12v-1.89h2.36v-5.08a2.4,2.4,0,0,1,.93-1.89l1.41-2.55,1.4,2.55a2.4,2.4,0,0,1,.93,1.89v5.08h2.08v1.8a13.38,13.38,0,0,1,6.29,8.48,5.61,5.61,0,0,1,2-1.49l1.45-9.42,1.78,9.32c2.08.8,3.72,3.18,4.28,6.22h1.26v8h2.85V193H192.6V173.91H194v-5.4h4.12v5.4h7.15v-5.4h.19l1.4-8.08.84,8.08H208l4-31.28,4.37,31.26h.31l1.12-7.46.84,7.46h.12v5.4h2.38V189.3h2.69v-3.56l.38-2.17.44-2.67,1,3.16.79-3.16,1,2.74,1.43-6.55,2.08,4.09v-4.39h.79v-7.15l.68,3.34h.21l.63-3.34.35,3.34h.19l1-3.72v7.53h1v7.62h.79V180.9l.63-1.42,1,1.42v3.53h2.55l-.16-3.5.79-2.5,1.12,1.7v-3.34h1V173h.17v-3.34l.67,3.34h.21l.61-3.34.35,3.34h.19l1-3.72v7.53h.75v7.62h1v-5.89l1.59,2.38v3.46h2.88l1.24-2.66,1.33,2.66h3.27l.64-2.66.77,2.66h.65l.77-2.66.8,2.66h3.5l1.73-2.66.8,2.66,1.12-2.66,1.24,2.66h3.06l2.08-3.5.63,3.5.8-2.66.77,2.66h.84l1.59-3.5,2.08,3.5,1.59-2.66.8,2.66,1-3.5,1.49,3.5h2v3.07h.79V26.14A25.64,25.64,0,0,0,264.27.5H25.38A24.88,24.88,0,0,0,.5,25.38V183l.17-1.18Z"/><path class="cls-2" d="M145.21,336.19c56.19,0,105.12-32.48,129-79.59H16.15C40.08,303.71,89,336.19,145.21,336.19Z"/><path class="cls-3" d="M289.12,187.43v-3.07h-2l-1.49-3.5-1,3.5-.8-2.66-1.59,2.66-2.08-3.5-1.59,3.5h-.84L277,181.7l-.8,2.66-.63-3.5-2.08,3.5h-3.06l-1.24-2.66-1.12,2.66-.8-2.66-1.73,2.66H262l-.8-2.66-.77,2.66h-.65L259,181.7l-.64,2.66h-3.27l-1.33-2.66-1.24,2.66h-2.88V180.9l-1.59-2.38v5.89h-1v-7.62h-.75v-7.53l-1,3.72h-.19l-.35-3.34-.61,3.34h-.21l-.67-3.34V173h-.17v3.81h-1v3.34l-1.12-1.7-.79,2.5.16,3.5H238V180.9l-1-1.42-.63,1.42v3.51h-.79v-7.62h-1v-7.53l-1,3.72h-.19l-.35-3.34L232.5,173h-.21l-.68-3.34v7.15h-.79v4.39l-2.08-4.09-1.43,6.55-1-2.74-.79,3.16-1-3.16-.44,2.67-.38,2.17v3.56h-2.69V173.89h-2.38v-5.4h-.12l-.84-7.46-1.12,7.46h-.31L212,137.23l-4,31.28h-.26l-.84-8.08-1.4,8.08h-.19v5.4h-7.15v-5.4H194v5.4H192.6V193H173.52v-5.52h-2.85v-8h-1.26c-.56-3-2.2-5.42-4.28-6.22L163.35,164l-1.45,9.42a5.61,5.61,0,0,0-2,1.49,13.38,13.38,0,0,0-6.29-8.48v-1.8h-2.08v-5.08a2.4,2.4,0,0,0-.93-1.89l-1.4-2.55-1.41,2.55a2.4,2.4,0,0,0-.93,1.89v5.08h-2.36v1.89a13.74,13.74,0,0,0-6.83,12c0,.37,0,.7,0,1.07h-2.17v8H128V193h-3.32v-4h-.16l-.8-7.15-.84,7.15h-.12v1l-1.59.7-1.12-6.75-1.4,6.59h-1.45v-5.64l-.54,5.64h-.19L116,184l-1.08,6.45h-3l-.65-4.77-.66,4.77h-.77v-3.91h-4.42V175.15h-.11l-.75-6.19-.75,6.19h-.12v1.9h-1.73v-1.9l-1.17-4.37-1,4.37h-.21v1.9H97.47v-3.16h-.21L95.86,169l-1,4.93h-.16v3.16h-1l-.77-6.27-.8,3.81-1-3.81-1.27,4.68v-.31l-1.59-8.74-1.59,8.74v11.43H82.93v-4.76H79.12V193H75.78v-2.48H73.7v-6.45H72.62V180.9h-3v-13h-1L65.8,149.3l-2.69,18.58H62v13H58.83v3.16H57.71v6.45H52.26l-2.94-14.28-1.73,9.42v-7.18h-5.4v6.45H30.31v-4H24.16v4H22.53V189h-.87l-.89-4.12-1,4.12h-.25V184.9L18.72,189H15.37l-1.31-4.12L13.41,189h-2.5l-1.15-4.94L8.31,189H7.78l-1.22-4.94L5.34,189h-3L.67,181.86.5,183v8.45A143.83,143.83,0,0,0,16.15,256.6H274.26a143.83,143.83,0,0,0,15.65-65.11v-4.06Z"/><path class="cls-4" d="M239.36,89c0-24.66-18.1-44.91-41.23-47.2-8.46-14.13-23.52-23.53-40.7-23.53a47,47,0,0,0-35.31,16.15,31.29,31.29,0,0,0-8.74-1.25C99,33.18,86.7,43,82.1,56.71,63.91,60.14,50,76.78,50,96.64h0c0,22.33,17.57,40.59,39,40.59H189.51a37.61,37.61,0,0,0,8.67-1C221.29,133.89,239.36,113.65,239.36,89Z"/><path class="cls-2" d="M78.43,70.64h9.72l16.11,45.05H94.42l-3.25-10H75.06l-3.38,10h-9.6Zm-.9,27.64H88.69L83.26,81.74h-.12Z"/><path class="cls-2" d="M105.16,108.94l16.23-19.12h-15V83.07h26.3v6.75l-16.23,19.12h17.38v6.75H105.16Z"/><path class="cls-2" d="M167.66,115.69h-8.14v-4.54h-.19a10.87,10.87,0,0,1-9.53,5.42c-9.11,0-11.4-5.36-11.4-13.44V83.07H147v18.42c0,5.37,1.44,8,5.49,8,4.64,0,6.63-2.72,6.63-9.34V83.07h8.57Z"/><path class="cls-2" d="M174.17,83.07h8.15v6.06h.12a11,11,0,0,1,9.95-6.94,6.06,6.06,0,0,1,1.87.31v8.33a14.89,14.89,0,0,0-3.07-.31c-6.34,0-8.45,4.66-8.45,10.47v14.7h-8.57Z"/><path class="cls-2" d="M204.7,101.56c.24,5.74,2.83,8.26,7.66,8.26,3.44,0,6.21-2.21,6.76-4.23h7.54c-2.41,7.77-7.54,11-14.6,11-9.83,0-15.93-7.06-15.93-17.16,0-9.78,6.46-17.22,15.93-17.22,10.62,0,15.81,9.33,15.14,19.37Zm13.94-5.68c-.79-4.54-2.66-6.94-6.82-6.94-5.55,0-6.94,4.41-7.12,6.94Z"/><path d="M41.78,199.85c13,0,20.74,10.53,20.74,24.06,0,13.15-7.74,23.68-20.74,23.68S21,237.06,21,223.91C21,210.38,28.78,199.85,41.78,199.85Zm0,39.32c8.33,0,11.46-7.66,11.46-15.26,0-8-3.13-15.64-11.46-15.64s-11.46,7.66-11.46,15.64C30.32,231.51,33.45,239.17,41.78,239.17Z"/><path d="M79.18,222.64,65.59,200.93H76.34l8.28,14.56,8.56-14.56h10.16L89.81,222.7l14.72,23.81h-11l-9.22-15.77-9.39,15.77H64.41Z"/><path d="M108.25,200.93h29.66v8.43H117.53v10.53h17.66v7.79H117.53v18.83h-9.28Z"/><path d="M162.19,199.85c13,0,20.74,10.53,20.74,24.06,0,13.15-7.74,23.68-20.74,23.68s-20.73-10.53-20.73-23.68C141.46,210.38,149.19,199.85,162.19,199.85Zm0,39.32c8.33,0,11.46-7.66,11.46-15.26,0-8-3.13-15.64-11.46-15.64s-11.46,7.66-11.46,15.64C150.73,231.51,153.86,239.17,162.19,239.17Z"/><path d="M189.26,200.93H212c7.56,0,12.35,5.68,12.35,12.58,0,5.36-1.95,9.38-6.68,11.42v.13c4.55,1.34,5.85,6,6.15,10.66.18,2.87.06,8.3,1.77,10.79h-9.28c-1.06-2.88-1-7.28-1.47-10.92-.65-4.78-2.37-6.89-7-6.89h-9.28v17.81h-9.27Zm9.27,20.62h10.16c4.2,0,6.38-1.91,6.38-6.51,0-4.4-2.18-6.32-6.38-6.32H198.53Z"/><path d="M231.91,200.93h18.2c10.93,0,19.14,7.47,19.14,22.53,0,13.22-6.26,23-19.14,23h-18.2Zm9.28,37.15h8.27c5.38,0,10.52-3.57,10.52-13.66,0-9.19-3-15.06-12.17-15.06h-6.62Z"/><path class="cls-5" d="M41.78,199.85c13,0,20.74,10.53,20.74,24.06,0,13.15-7.74,23.68-20.74,23.68S21,237.06,21,223.91C21,210.38,28.78,199.85,41.78,199.85Zm0,39.32c8.33,0,11.46-7.66,11.46-15.26,0-8-3.13-15.64-11.46-15.64s-11.46,7.66-11.46,15.64C30.32,231.51,33.45,239.17,41.78,239.17Z"/><path class="cls-5" d="M79.18,222.64,65.59,200.93H76.34l8.28,14.56,8.56-14.56h10.16L89.81,222.7l14.72,23.81h-11l-9.22-15.77-9.39,15.77H64.41Z"/><path class="cls-5" d="M108.25,200.93h29.66v8.43H117.53v10.53h17.66v7.79H117.53v18.83h-9.28Z"/><path class="cls-5" d="M162.19,199.85c13,0,20.74,10.53,20.74,24.06,0,13.15-7.74,23.68-20.74,23.68s-20.73-10.53-20.73-23.68C141.46,210.38,149.19,199.85,162.19,199.85Zm0,39.32c8.33,0,11.46-7.66,11.46-15.26,0-8-3.13-15.64-11.46-15.64s-11.46,7.66-11.46,15.64C150.73,231.51,153.86,239.17,162.19,239.17Z"/><path class="cls-5" d="M189.26,200.93H212c7.56,0,12.35,5.68,12.35,12.58,0,5.36-1.95,9.38-6.68,11.42v.13c4.55,1.34,5.85,6,6.15,10.66.18,2.87.06,8.3,1.77,10.79h-9.28c-1.06-2.88-1-7.28-1.47-10.92-.65-4.78-2.37-6.89-7-6.89h-9.28v17.81h-9.27Zm9.27,20.62h10.16c4.2,0,6.38-1.91,6.38-6.51,0-4.4-2.18-6.32-6.38-6.32H198.53Z"/><path class="cls-5" d="M231.91,200.93h18.2c10.93,0,19.14,7.47,19.14,22.53,0,13.22-6.26,23-19.14,23h-18.2Zm9.28,37.15h8.27c5.38,0,10.52-3.57,10.52-13.66,0-9.19-3-15.06-12.17-15.06h-6.62Z"/><path class="cls-6" d="M41.78,199.85c13,0,20.74,10.53,20.74,24.06,0,13.15-7.74,23.68-20.74,23.68S21,237.06,21,223.91C21,210.38,28.78,199.85,41.78,199.85Zm0,39.32c8.33,0,11.46-7.66,11.46-15.26,0-8-3.13-15.64-11.46-15.64s-11.46,7.66-11.46,15.64C30.32,231.51,33.45,239.17,41.78,239.17Z"/><path class="cls-6" d="M79.18,222.64,65.59,200.93H76.34l8.28,14.56,8.56-14.56h10.16L89.81,222.7l14.72,23.81h-11l-9.22-15.77-9.39,15.77H64.41Z"/><path class="cls-6" d="M108.25,200.93h29.66v8.43H117.53v10.53h17.66v7.79H117.53v18.83h-9.28Z"/><path class="cls-6" d="M162.19,199.85c13,0,20.74,10.53,20.74,24.06,0,13.15-7.74,23.68-20.74,23.68s-20.73-10.53-20.73-23.68C141.46,210.38,149.19,199.85,162.19,199.85Zm0,39.32c8.33,0,11.46-7.66,11.46-15.26,0-8-3.13-15.64-11.46-15.64s-11.46,7.66-11.46,15.64C150.73,231.51,153.86,239.17,162.19,239.17Z"/><path class="cls-6" d="M189.26,200.93H212c7.56,0,12.35,5.68,12.35,12.58,0,5.36-1.95,9.38-6.68,11.42v.13c4.55,1.34,5.85,6,6.15,10.66.18,2.87.06,8.3,1.77,10.79h-9.28c-1.06-2.88-1-7.28-1.47-10.92-.65-4.78-2.37-6.89-7-6.89h-9.28v17.81h-9.27Zm9.27,20.62h10.16c4.2,0,6.38-1.91,6.38-6.51,0-4.4-2.18-6.32-6.38-6.32H198.53Z"/><path class="cls-6" d="M231.91,200.93h18.2c10.93,0,19.14,7.47,19.14,22.53,0,13.22-6.26,23-19.14,23h-18.2Zm9.28,37.15h8.27c5.38,0,10.52-3.57,10.52-13.66,0-9.19-3-15.06-12.17-15.06h-6.62Z"/></g></g></svg>